<?xml version="1.0" encoding="UTF-8"?>
<svg version="1.1" xmlns="http://www.w3.org/2000/svg" width="512" height="512">
<path d="M0 0 C0.88139648 0.00087616 1.76279297 0.00175232 2.67089844 0.00265503 C16.97957435 0.04945881 30.68611478 0.90625802 44.625 4.375 C45.62370117 4.62169434 46.62240234 4.86838867 47.65136719 5.12255859 C67.63546688 10.21390961 89.20076233 17.77777354 105.75 30.5 C110.06313371 33.22742278 113.55389914 31.97907978 118.3515625 31.01171875 C142.19603323 26.8681952 165.70567952 31.59559629 185.97265625 44.5078125 C205.96931133 58.90540416 219.09380658 78.46899453 224.625 102.375 C224.90174561 103.51014038 224.90174561 103.51014038 225.18408203 104.66821289 C225.68953517 107.77118018 225.56941656 110.53489528 225.37109375 113.671875 C225.32275391 114.8784375 225.27441406 116.085 225.22460938 117.328125 C225.11712755 119.84553069 224.97425695 122.36169089 224.79492188 124.875 C224.54202945 131.98025144 224.54202945 131.98025144 227.72851562 138.11108398 C230.26251141 140.3831118 232.8786849 142.36895364 235.625 144.375 C246.79519644 154.94381651 255.81063694 171.33408612 256.78613281 186.95532227 C257.1550015 210.98969085 253.19709598 230.22358522 236.0703125 248.03125 C229.38546858 254.774223 229.38546858 254.774223 226.99267578 256.66455078 C225.03006795 259.11903676 225.35940805 260.80132701 225.5078125 263.90625 C225.54390625 265.01766357 225.58 266.12907715 225.6171875 267.27416992 C225.66101563 268.46244385 225.70484375 269.65071777 225.75 270.875 C226.13318589 293.49045154 219.77586127 313.30709098 204.625 330.375 C204.09648437 331.0453125 203.56796875 331.715625 203.0234375 332.40625 C190.0739465 348.48148021 169.72516414 358.17125261 149.625 361.375 C144.94782912 361.80302384 140.30723925 361.71872066 135.625 361.375 C135.67140625 362.09042969 135.7178125 362.80585938 135.765625 363.54296875 C136.30011483 378.2987058 130.92832775 391.51821638 121.3125 402.625 C110.66284143 413.82397541 97.27252094 422.01403909 81.48828125 422.7109375 C70.95419105 422.88243803 61.41716218 422.72555673 51.625 418.375 C50.69945312 417.97410156 49.77390625 417.57320313 48.8203125 417.16015625 C41.36452846 413.51674903 31.00461886 406.92340881 27.6171875 399.02514648 C26.25027738 396.03561776 25.23401028 394.4124635 22.625 392.375 C17.04501163 391.44355757 11.65524101 391.64071948 6.02059937 391.9262085 C1.36888896 392.15503574 -3.28508781 392.22454826 -7.94140625 392.30078125 C-9.31086647 392.32718689 -9.31086647 392.32718689 -10.70799255 392.35412598 C-39.59713959 392.77218013 -73.29509816 382.09172438 -97.26171875 365.79296875 C-97.90044922 365.36927002 -98.53917969 364.94557129 -99.19726562 364.5090332 C-100.39170419 363.70278718 -101.56648795 362.86611924 -102.71289062 361.99291992 C-107.85787569 358.53266232 -112.03242895 359.63301266 -117.90698242 360.76708984 C-133.00011984 363.4127718 -149.94764891 362.61989463 -164.375 357.375 C-165.02968262 357.13894043 -165.68436523 356.90288086 -166.35888672 356.65966797 C-189.37107327 348.13113718 -207.47464544 331.24111242 -218.1875 309.125 C-222.81168986 298.87176086 -225.61804246 288.93010885 -225.26171875 277.609375 C-225.22570557 276.41666992 -225.18969238 275.22396484 -225.15258789 273.99511719 C-225.05283488 271.62849691 -224.90423129 269.26330122 -224.70092773 266.90332031 C-224.45892767 261.90855586 -224.31244538 258.71619144 -227.50048828 254.69213867 C-230.03203623 252.41855782 -232.64215769 250.39824276 -235.375 248.375 C-246.57843677 237.55070269 -254.56038838 221.41989427 -255.53613281 205.79467773 C-255.90521536 181.74637491 -255.90521536 181.74637491 -252.375 172.375 C-252.02308594 171.38886719 -251.67117187 170.40273437 -251.30859375 169.38671875 C-246.15415879 155.99879693 -237.97132183 144.96397119 -226.71533203 136.0625 C-224.77872371 133.62427837 -225.11081647 131.91920584 -225.2578125 128.84375 C-225.29406738 127.73257813 -225.33032227 126.62140625 -225.36767578 125.4765625 C-225.41134277 124.28804688 -225.45500977 123.09953125 -225.5 121.875 C-225.88092471 97.6494686 -218.12894398 76.34289957 -201.4453125 58.4609375 C-185.63084753 42.26491718 -164.68829506 30.64622885 -141.65625 30.01171875 C-139.39577033 30.01302237 -137.13524622 30.02998783 -134.875 30.0625 C-133.75480469 30.05927734 -132.63460937 30.05605469 -131.48046875 30.05273438 C-125.65732341 30.08967474 -120.31850558 30.5317822 -114.609375 31.69921875 C-107.94609766 32.81294657 -104.53929578 31.27486467 -99.125 27.5 C-97.48504632 26.46095791 -95.84174831 25.42717735 -94.1953125 24.3984375 C-92.98149902 23.6245166 -92.98149902 23.6245166 -91.74316406 22.83496094 C-74.29519812 12.07837987 -53.44242158 5.8930522 -33.375 2.375 C-32.39563477 2.19839844 -31.41626953 2.02179687 -30.40722656 1.83984375 C-20.26310982 0.18703451 -10.25848428 -0.02496598 0 0 Z M-98.06225586 63.80566406 C-102.74678365 67.38791487 -102.74678365 67.38791487 -106.03515625 67.3203125 C-106.80730469 67.00835937 -107.57945312 66.69640625 -108.375 66.375 C-109.14457031 66.07722656 -109.91414063 65.77945313 -110.70703125 65.47265625 C-111.52558594 65.13105469 -112.34414062 64.78945312 -113.1875 64.4375 C-128.2250149 58.91970219 -143.87046676 59.22111961 -158.50390625 65.90625 C-175.30771712 74.50248522 -186.42362085 86.83248596 -192.875 104.5625 C-197.24450294 120.83988256 -193.65226656 135.79349621 -188.375 151.375 C-189.25671875 151.65214844 -190.1384375 151.92929688 -191.046875 152.21484375 C-204.44402011 156.88497532 -215.15505005 165.56559811 -221.375 178.375 C-221.88353516 179.365 -221.88353516 179.365 -222.40234375 180.375 C-226.22339497 189.39056787 -225.84678646 202.1936677 -222.8125 211.375 C-216.16965195 226.57197168 -204.88735765 234.54461162 -190.375 241.375 C-189.715 241.375 -189.055 241.375 -188.375 241.375 C-188.55675781 241.91165283 -188.73851562 242.44830566 -188.92578125 243.0012207 C-195.60683783 263.17073095 -197.43056122 280.33895787 -187.8125 299.9375 C-179.14766657 314.85059271 -165.8553849 324.55420714 -149.375 329.375 C-135.17409286 332.58165645 -122.42847628 331.28464896 -109.1796875 325.30078125 C-105.89242158 324.21570879 -104.60687823 324.16863071 -101.375 325.375 C-99.10370305 326.94320758 -96.96902991 328.5386948 -94.8125 330.25 C-63.3773482 354.08721207 -21.71603327 366.25167994 17.625 361.375 C25.98497046 360.20455319 34.31010837 358.82884314 42.625 357.375 C45.39971264 364.69086207 45.39971264 364.69086207 46.58203125 368.28125 C49.89403273 378.32311749 54.09182545 384.02373263 63.35546875 389.24609375 C69.9520616 392.52735939 78.2273207 392.49849471 85.30078125 390.69140625 C94.26376597 386.96069931 99.60193637 381.10272068 103.625 372.375 C107.88209777 359.60370669 102.84180116 348.24657782 97.64697266 336.66455078 C96.23926211 333.51082179 94.93425223 330.32078283 93.625 327.125 C92.95955885 325.54115122 92.29312438 323.95771877 91.625 322.375 C100.47806468 323.84814822 109.08310728 325.94799601 117.75195312 328.25195312 C133.8456719 332.4075109 148.45554059 331.92151948 163.625 324.375 C178.4425627 315.2938953 189.78189802 302.37841124 193.9921875 285.21484375 C196.56435179 269.60720491 193.64842763 256.20702634 188.625 241.375 C189.50671875 241.09785156 190.3884375 240.82070312 191.296875 240.53515625 C204.25231415 236.01899965 215.01369745 227.44062715 221.625 215.375 C222.0375 214.6634375 222.45 213.951875 222.875 213.21875 C227.2244323 204.39906784 227.13725734 193.21810497 224.70703125 183.828125 C218.36825079 167.66320913 205.8956055 158.47233952 190.625 151.375 C189.965 151.375 189.305 151.375 188.625 151.375 C188.80675781 150.84358398 188.98851562 150.31216797 189.17578125 149.76464844 C195.02838217 132.24436236 198.23604968 114.93529017 190.625 97.375 C190.22410156 96.446875 189.82320313 95.51875 189.41015625 94.5625 C182.05347561 79.55060675 169.24380007 69.38234209 153.84765625 63.3828125 C138.9087335 58.71100393 124.58607909 60.05542866 110.4296875 66.44921875 C107.14820232 67.53238308 105.85055898 67.5796069 102.625 66.375 C100.4210487 64.82525588 98.34654689 63.2446434 96.25 61.5625 C40.27670697 18.97489064 -43.00057315 20.60111417 -98.06225586 63.80566406 Z " fill="#000000" transform="translate(255.375,-0.375)"/>
<path d="M0 0 C9.47463573 6.94911196 16.95161439 16.64389635 19.421875 28.35546875 C20.71840454 42.36291128 19.58515159 54.65161646 11.046875 66.29296875 C3.78295018 74.83784376 -6.21343292 82.31981132 -17.71948242 83.59228516 C-32.1242475 84.41099145 -44.29723511 82.83628641 -55.65625 73.15625 C-63.78698313 65.53781916 -70.43729869 55.48683287 -70.8515625 44.046875 C-71.2686331 29.19654597 -69.07220246 17.55522171 -58.578125 6.35546875 C-43.56002846 -9.51550735 -18.09084176 -11.53976422 0 0 Z M-38.453125 30.48046875 C-40.14296751 34.79895517 -40.23773483 38.78217395 -39.578125 43.35546875 C-37.41513663 47.76155618 -35.18132021 50.55421845 -30.578125 52.35546875 C-25.53487116 53.03972932 -21.74735616 52.92945495 -17.140625 50.66796875 C-13.78156488 47.63662181 -11.88456869 45.61407227 -11.26171875 41.0234375 C-10.99598848 35.30595066 -11.60965348 31.75296422 -15.578125 27.35546875 C-19.41525696 23.96976408 -23.21213962 23.84255703 -28.140625 24.00390625 C-32.80338646 24.67641992 -35.43002792 27.05429206 -38.453125 30.48046875 Z " fill="#000000" transform="translate(431.578125,428.64453125)"/>
<path d="M0 0 C9.47463573 6.94911196 16.95161439 16.64389635 19.421875 28.35546875 C20.71840454 42.36291128 19.58515159 54.65161646 11.046875 66.29296875 C3.78295018 74.83784376 -6.21343292 82.31981132 -17.71948242 83.59228516 C-32.1242475 84.41099145 -44.29723511 82.83628641 -55.65625 73.15625 C-63.78698313 65.53781916 -70.43729869 55.48683287 -70.8515625 44.046875 C-71.2686331 29.19654597 -69.07220246 17.55522171 -58.578125 6.35546875 C-43.56002846 -9.51550735 -18.09084176 -11.53976422 0 0 Z M-38.453125 30.48046875 C-40.14296751 34.79895517 -40.23773483 38.78217395 -39.578125 43.35546875 C-37.41513663 47.76155618 -35.18132021 50.55421845 -30.578125 52.35546875 C-25.53487116 53.03972932 -21.74735616 52.92945495 -17.140625 50.66796875 C-13.78156488 47.63662181 -11.88456869 45.61407227 -11.26171875 41.0234375 C-10.99598848 35.30595066 -11.60965348 31.75296422 -15.578125 27.35546875 C-19.41525696 23.96976408 -23.21213962 23.84255703 -28.140625 24.00390625 C-32.80338646 24.67641992 -35.43002792 27.05429206 -38.453125 30.48046875 Z " fill="#000000" transform="translate(401.578125,157.64453125)"/>
<path d="M0 0 C9.47463573 6.94911196 16.95161439 16.64389635 19.421875 28.35546875 C20.71840454 42.36291128 19.58515159 54.65161646 11.046875 66.29296875 C3.78295018 74.83784376 -6.21343292 82.31981132 -17.71948242 83.59228516 C-32.1242475 84.41099145 -44.29723511 82.83628641 -55.65625 73.15625 C-63.78698313 65.53781916 -70.43729869 55.48683287 -70.8515625 44.046875 C-71.2686331 29.19654597 -69.07220246 17.55522171 -58.578125 6.35546875 C-43.56002846 -9.51550735 -18.09084176 -11.53976422 0 0 Z M-38.453125 30.48046875 C-40.14296751 34.79895517 -40.23773483 38.78217395 -39.578125 43.35546875 C-37.41513663 47.76155618 -35.18132021 50.55421845 -30.578125 52.35546875 C-25.53487116 53.03972932 -21.74735616 52.92945495 -17.140625 50.66796875 C-13.78156488 47.63662181 -11.88456869 45.61407227 -11.26171875 41.0234375 C-10.99598848 35.30595066 -11.60965348 31.75296422 -15.578125 27.35546875 C-19.41525696 23.96976408 -23.21213962 23.84255703 -28.140625 24.00390625 C-32.80338646 24.67641992 -35.43002792 27.05429206 -38.453125 30.48046875 Z " fill="#000000" transform="translate(281.578125,157.64453125)"/>
<path d="M0 0 C9.47463573 6.94911196 16.95161439 16.64389635 19.421875 28.35546875 C20.71840454 42.36291128 19.58515159 54.65161646 11.046875 66.29296875 C3.78295018 74.83784376 -6.21343292 82.31981132 -17.71948242 83.59228516 C-32.1242475 84.41099145 -44.29723511 82.83628641 -55.65625 73.15625 C-63.78698313 65.53781916 -70.43729869 55.48683287 -70.8515625 44.046875 C-71.2686331 29.19654597 -69.07220246 17.55522171 -58.578125 6.35546875 C-43.56002846 -9.51550735 -18.09084176 -11.53976422 0 0 Z M-38.453125 30.48046875 C-40.14296751 34.79895517 -40.23773483 38.78217395 -39.578125 43.35546875 C-37.41513663 47.76155618 -35.18132021 50.55421845 -30.578125 52.35546875 C-25.53487116 53.03972932 -21.74735616 52.92945495 -17.140625 50.66796875 C-13.78156488 47.63662181 -11.88456869 45.61407227 -11.26171875 41.0234375 C-10.99598848 35.30595066 -11.60965348 31.75296422 -15.578125 27.35546875 C-19.41525696 23.96976408 -23.21213962 23.84255703 -28.140625 24.00390625 C-32.80338646 24.67641992 -35.43002792 27.05429206 -38.453125 30.48046875 Z " fill="#000000" transform="translate(161.578125,157.64453125)"/>
</svg>
